<svg xmlns="http://www.w3.org/2000/svg" width="316" height="158">
    <path fill="#EF5350" d="M0 158a158 158 0 0 1 29.6-92l3.2 2.3A154 154 0 0 0 4 158"/>
    <path fill="#EF5350" opacity=".6" d="M30.8 64.3A158 158 0 0 1 108.2 8l1.3 3.8A154 154 0 0 0 34 66.7"/>
    <path fill="#D1D4DC" d="M110.1 7.4a158 158 0 0 1 95.8 0l-1.3 3.8a154 154 0 0 0-93.2 0"/>
    <path fill="#00e600" opacity=".6" d="M207.8 8a158 158 0 0 1 77.4 56.3l-3.2 2.4a154 154 0 0 0-75.5-54.9"/>
    <path fill="green" d="M286.4 66a158 158 0 0 1 29.6 92h-4a154 154 0 0 0-28.8-89.7"/>
</svg>